<svg width="49" height="57" viewBox="0 0 49 57" fill="none" xmlns="http://www.w3.org/2000/svg">
<path d="M32.1875 0.693359H16.1875V6.02669H32.1875V0.693359ZM21.5208 35.36H26.8542V19.36H21.5208V35.36ZM42.9342 17.7067L46.7208 13.92C45.5742 12.56 44.3208 11.28 42.9608 10.16L39.1742 13.9467C35.0408 10.64 29.8408 8.66669 24.1875 8.66669C10.9342 8.66669 0.1875 19.4134 0.1875 32.6667C0.1875 45.92 10.9075 56.6667 24.1875 56.6667C37.4675 56.6667 48.1875 45.92 48.1875 32.6667C48.1875 27.04 46.2142 21.84 42.9342 17.7067ZM24.1875 51.36C13.8675 51.36 5.52083 43.0134 5.52083 32.6934C5.52083 22.3734 13.8675 14.0267 24.1875 14.0267C34.5075 14.0267 42.8542 22.3734 42.8542 32.6934C42.8542 43.0134 34.5075 51.36 24.1875 51.36Z" fill="white"/>
</svg>
