<svg width="34" height="35" viewBox="0 0 34 41" fill="none" xmlns="http://www.w3.org/2000/svg">
<path d="M26.0733 40.4346C26.25 40.8092 26.697 40.9697 27.0716 40.793L33.1765 37.9133C33.5512 37.7366 33.7116 37.2896 33.5349 36.915C33.3582 36.5404 32.9112 36.3799 32.5366 36.5566L27.11 39.1163L24.5503 33.6898C24.3736 33.3151 23.9266 33.1547 23.552 33.3314C23.1774 33.5081 23.0169 33.9551 23.1937 34.3297L26.0733 40.4346ZM0.751656 1.86463C7.318 1.86463 16.3984 3.79291 22.4384 9.46151C25.4426 12.281 27.7079 16.0357 28.5498 20.9842C29.3934 25.9431 28.8149 32.1472 26.0458 39.8612L27.4576 40.368C30.2884 32.4821 30.9265 26.0111 30.0285 20.7326C29.1287 15.4436 26.694 11.3983 23.4649 8.36775C17.0383 2.33635 7.51865 0.364632 0.751656 0.364632L0.751656 1.86463Z" fill="white"/>
</svg>
