<svg width="28" height="30" viewBox="0 0 28 30" fill="none" xmlns="http://www.w3.org/2000/svg">
<path d="M19.104 4.76186C20.4565 4.76604 21.7526 5.32439 22.709 6.31496C23.6654 7.30552 24.2045 8.64782 24.2085 10.0487V20.6212C24.2045 22.0221 23.6654 23.3644 22.709 24.355C21.7526 25.3455 20.4565 25.9039 19.104 25.9081H8.89602C7.54345 25.9039 6.24744 25.3455 5.29103 24.355C4.33462 23.3644 3.79552 22.0221 3.79148 20.6212V10.0487C3.79552 8.64782 4.33462 7.30552 5.29103 6.31496C6.24744 5.32439 7.54345 4.76604 8.89602 4.76186H19.104ZM19.104 2.64746H8.89602C4.96562 2.64746 1.75 5.97793 1.75 10.0487V20.6212C1.75 24.692 4.96562 28.0225 8.89602 28.0225H19.104C23.0344 28.0225 26.25 24.692 26.25 20.6212V10.0487C26.25 5.97793 23.0344 2.64746 19.104 2.64746Z" fill="white"/>
<path d="M20.6348 10.0488C20.3319 10.0488 20.0359 9.95581 19.7841 9.78155C19.5322 9.60728 19.336 9.35959 19.2201 9.0698C19.1042 8.78001 19.0739 8.46113 19.1329 8.15349C19.192 7.84585 19.3379 7.56326 19.552 7.34146C19.7662 7.11967 20.039 6.96862 20.336 6.90743C20.6331 6.84623 20.941 6.87764 21.2208 6.99768C21.5006 7.11771 21.7397 7.32099 21.908 7.58179C22.0762 7.8426 22.166 8.14922 22.166 8.46289C22.1665 8.67128 22.1271 8.87771 22.0503 9.07033C21.9735 9.26295 21.8608 9.43796 21.7185 9.58532C21.5762 9.73267 21.4072 9.84947 21.2213 9.92902C21.0353 10.0086 20.836 10.0493 20.6348 10.0488Z" fill="white"/>
<path d="M14 11.1056C14.8076 11.1056 15.5971 11.3537 16.2687 11.8184C16.9402 12.2831 17.4636 12.9436 17.7727 13.7165C18.0817 14.4893 18.1626 15.3397 18.0051 16.1601C17.8475 16.9805 17.4586 17.7341 16.8875 18.3256C16.3164 18.9171 15.5888 19.3199 14.7967 19.4831C14.0045 19.6462 13.1835 19.5625 12.4373 19.2424C11.6911 18.9223 11.0534 18.3802 10.6047 17.6847C10.156 16.9892 9.91649 16.1714 9.91649 15.335C9.91764 14.2136 10.3482 13.1386 11.1138 12.3457C11.8794 11.5528 12.9173 11.1068 14 11.1056ZM14 8.99121C12.7886 8.99121 11.6044 9.36327 10.5971 10.0603C9.58988 10.7574 8.80483 11.7481 8.34124 12.9073C7.87765 14.0665 7.75636 15.342 7.99269 16.5726C8.22903 17.8031 8.81238 18.9335 9.66897 19.8207C10.5256 20.7079 11.6169 21.312 12.8051 21.5568C13.9932 21.8016 15.2247 21.676 16.3439 21.1958C17.4631 20.7157 18.4197 19.9026 19.0928 18.8594C19.7658 17.8161 20.125 16.5896 20.125 15.335C20.125 13.6525 19.4797 12.0389 18.331 10.8493C17.1824 9.65957 15.6245 8.99121 14 8.99121Z" fill="white"/>
</svg>
