<svg width="29" height="24" viewBox="0 0 29 24" fill="none" xmlns="http://www.w3.org/2000/svg">
<g clip-path="url(#clip0)">
<path d="M27.8231 7.00846C27.8231 4.63541 26.0776 2.72643 23.9208 2.72643C20.9993 2.58984 18.0198 2.53711 14.9749 2.53711H14.0257C10.9882 2.53711 8.00345 2.58984 5.08196 2.72695C2.9304 2.72695 1.18489 4.64648 1.18489 7.01953C1.05306 8.89635 0.997157 10.7737 1.00032 12.651C0.995047 14.5284 1.05481 16.4075 1.17962 18.2883C1.17962 20.6614 2.92513 22.5862 5.07669 22.5862C8.14583 22.7286 11.2941 22.7919 14.495 22.7866C17.7013 22.7971 20.8407 22.7303 23.9134 22.5862C26.0702 22.5862 27.8157 20.6614 27.8157 18.2883C27.9423 16.4057 28.0003 14.5284 27.995 12.6458C28.007 10.7684 27.9497 8.88932 27.8231 7.00846ZM11.9163 17.8243V7.46197L19.5628 12.6405L11.9163 17.8243Z" stroke="white" stroke-width="1.5"/>
</g>
<defs>
<clipPath id="clip0">
<rect width="29" height="23" fill="white" transform="translate(0 0.834961)"/>
</clipPath>
</defs>
</svg>
