<svg width="29" height="31" viewBox="0 0 29 31" fill="none" xmlns="http://www.w3.org/2000/svg">
<path d="M27.4537 7.78418C27.6554 7.12324 27.4537 6.64277 26.5616 6.64277H23.5954C22.8471 6.64277 22.5016 7.06348 22.3 7.51348C22.3 7.51348 20.7741 11.3572 18.6433 13.8492C17.9522 14.5699 17.6356 14.8102 17.2612 14.8102C17.0596 14.8102 16.8002 14.5699 16.8002 13.9096V7.75313C16.8002 6.97266 16.5702 6.6123 15.9364 6.6123H11.2715C10.8104 6.6123 10.5227 6.97266 10.5227 7.33301C10.5227 8.08359 11.5881 8.26406 11.7031 10.3658V14.9326C11.7031 15.9234 11.5332 16.1045 11.1559 16.1045C10.1483 16.1045 7.70086 12.2309 6.23273 7.81699C5.94727 6.94277 5.65727 6.6123 4.90848 6.6123H1.91389C1.05012 6.6123 0.90625 7.03242 0.90625 7.48301C0.90625 8.29395 1.91389 12.3773 5.59949 17.782C8.04693 21.4734 11.5309 23.4574 14.6694 23.4574C16.5702 23.4574 16.8002 23.0068 16.8002 22.2562V19.4637C16.8002 18.5631 16.9729 18.4131 17.5779 18.4131C18.0095 18.4131 18.7871 18.6527 20.5436 20.4246C22.5588 22.5264 22.9043 23.4873 24.0275 23.4873H26.9932C27.857 23.4873 28.2603 23.0367 28.0297 22.166C27.7709 21.2953 26.7916 20.0344 25.5245 18.5332C24.8335 17.693 23.797 16.7619 23.4804 16.3113C23.0488 15.7107 23.1637 15.4705 23.4804 14.9303C23.4515 14.9303 27.0799 9.58535 27.4537 7.78184" stroke="white" stroke-width="1.5"/>
</svg>
