<svg width="12" height="8" viewBox="0 0 12 8" fill="none" xmlns="http://www.w3.org/2000/svg">
<path fill-rule="evenodd" clip-rule="evenodd" d="M0.450102 3.83883H0.440102H9.7901L8.1101 2.06183C7.93664 1.87833 7.93664 1.59132 8.1101 1.40783L8.3701 1.13183C8.45044 1.04616 8.56265 0.997559 8.6801 0.997559C8.79755 0.997559 8.90976 1.04616 8.9901 1.13183L11.8701 4.17083C12.0436 4.35432 12.0436 4.64133 11.8701 4.82483L8.9901 7.86383C8.90961 7.94922 8.79745 7.99763 8.6801 7.99763C8.56275 7.99763 8.45059 7.94922 8.3701 7.86383L8.1101 7.58783C8.02759 7.4992 7.98122 7.38291 7.9801 7.26183C7.98125 7.14253 8.02772 7.02813 8.1101 6.94183L9.8101 5.15583H0.440102C0.189739 5.14291 -0.0050939 4.93347 0.000101526 4.68283V4.29983C-0.00212693 4.04859 0.19888 3.84267 0.450102 3.83883Z" fill="white"/>
</svg>
